<svg width="48" height="48" viewBox="0 0 48 48" fill="none" xmlns="http://www.w3.org/2000/svg">
<path d="M0 24C0 10.7452 10.7452 0 24 0C37.2548 0 48 10.7452 48 24C48 37.2548 37.2548 48 24 48C10.7452 48 0 37.2548 0 24Z" fill="#0077B5"/>
<path d="M37.325 35.325C35.75 35.2875 34.2125 35.2875 32.6375 35.325C32.3 35.325 32.225 35.25 32.225 34.9125C32.225 32.1375 32.225 29.325 32.225 26.55C32.225 25.9125 32.1875 25.275 32 24.675C31.4375 22.725 29.1875 22.0125 27.575 23.325C26.7125 24 26.375 24.9375 26.375 26.0625C26.375 28.6875 26.375 31.3125 26.375 33.9375C26.375 34.275 26.3375 34.6125 26.375 34.9875C26.4125 35.2875 26.2625 35.3625 26 35.325C24.3875 35.325 22.8125 35.325 21.2 35.325C20.9 35.325 20.825 35.25 20.825 34.95C20.8625 32.5875 20.8625 30.225 20.8625 27.825C20.8625 24.9 20.8625 21.975 20.825 19.0875C20.825 18.75 20.9 18.675 21.2 18.675C22.8125 18.675 24.3875 18.675 26 18.675C26.3 18.675 26.375 18.75 26.375 19.05C26.375 19.65 26.375 20.25 26.375 20.9625C26.4875 20.85 26.525 20.8125 26.5625 20.775C28.025 18.6375 30.0875 18.0375 32.525 18.4125C35.3375 18.8625 37.1375 20.8125 37.5875 23.8125C37.7 24.525 37.7375 25.2375 37.7375 25.95C37.7375 28.95 37.7375 31.9125 37.7375 34.9125C37.7375 35.2125 37.6625 35.325 37.325 35.325Z" fill="white"/>
<path d="M17.825 27C17.825 29.625 17.825 32.25 17.825 34.875C17.825 35.2125 17.75 35.325 17.4125 35.325C15.8375 35.2875 14.2625 35.325 12.6875 35.325C12.3875 35.325 12.3125 35.25 12.3125 34.95C12.3125 29.6625 12.3125 24.3375 12.3125 19.05C12.3125 18.7875 12.3875 18.675 12.6875 18.675C14.3 18.675 15.9125 18.675 17.525 18.675C17.8625 18.675 17.9 18.7875 17.9 19.0875C17.825 21.7125 17.825 24.3375 17.825 27Z" fill="white"/>
<path d="M18.0875 14.325C17.7125 15.825 16.175 16.6875 14.4125 16.3875C12.5375 16.0875 11.4875 14.25 12.1625 12.45C12.6125 11.325 13.7 10.65 15.0875 10.6875C17.1875 10.65 18.575 12.3375 18.0875 14.325Z" fill="white"/>
</svg>
