<svg width="48" height="48" viewBox="0 0 48 48" fill="none" xmlns="http://www.w3.org/2000/svg">
<path d="M0 24C0 10.7452 10.7452 0 24 0C37.2548 0 48 10.7452 48 24C48 37.2548 37.2548 48 24 48C10.7452 48 0 37.2548 0 24Z" fill="#FF4500"/>
<path fill-rule="evenodd" clip-rule="evenodd" d="M39.3757 22.1169C39.7637 22.6704 39.9833 23.3244 40.008 24C40.0182 24.6613 39.8411 25.3119 39.4971 25.8768C39.1531 26.4417 38.6562 26.8976 38.064 27.192C38.091 27.5435 38.091 27.8965 38.064 28.248C38.064 33.624 31.8 37.992 24.072 37.992C16.344 37.992 10.08 33.624 10.08 28.248C10.053 27.8965 10.053 27.5435 10.08 27.192C9.61839 26.9799 9.20841 26.67 8.87847 26.2837C8.54854 25.8974 8.30654 25.444 8.16925 24.9549C8.03196 24.4658 8.00266 23.9527 8.08339 23.4512C8.16411 22.9496 8.35293 22.4716 8.63675 22.0503C8.92057 21.6289 9.29261 21.2744 9.72709 21.0111C10.1616 20.7479 10.6481 20.5822 11.1529 20.5257C11.6578 20.4692 12.1689 20.5231 12.6508 20.6837C13.1328 20.8444 13.574 21.1079 13.944 21.456C16.7095 19.5804 19.9629 18.5544 23.304 18.504L25.08 10.176C25.0999 10.0796 25.1388 9.98808 25.1944 9.90681C25.25 9.82553 25.3211 9.75609 25.4037 9.70252C25.4863 9.64894 25.5787 9.61229 25.6756 9.59469C25.7724 9.57709 25.8718 9.57889 25.968 9.59998L31.848 10.776C32.1352 10.2826 32.5887 9.90779 33.1274 9.71873C33.666 9.52967 34.2544 9.53879 34.7869 9.74443C35.3194 9.95008 35.7611 10.3388 36.0329 10.8408C36.3046 11.3428 36.3885 11.9252 36.2695 12.4835C36.1505 13.0418 35.8365 13.5394 35.3837 13.887C34.9309 14.2346 34.369 14.4094 33.7989 14.3801C33.2288 14.3508 32.6879 14.1192 32.2732 13.727C31.8584 13.3348 31.5971 12.8075 31.536 12.24L26.4 11.16L24.84 18.648C28.1405 18.7188 31.3498 19.7441 34.08 21.6C34.5677 21.1319 35.1804 20.8149 35.8443 20.6871C36.5081 20.5594 37.1947 20.6264 37.8213 20.8801C38.4479 21.1338 38.9877 21.5633 39.3757 22.1169ZM29.5312 28.7969C30.8559 28.7969 31.9297 27.7231 31.9297 26.3984C31.9297 25.0738 30.8559 24 29.5312 24C28.2066 24 27.1328 25.0738 27.1328 26.3984C27.1328 27.7231 28.2066 28.7969 29.5312 28.7969ZM20.8125 26.3984C20.8125 27.7231 19.7387 28.7969 18.4141 28.7969C17.0894 28.7969 16.0156 27.7231 16.0156 26.3984C16.0156 25.0738 17.0894 24 18.4141 24C19.7387 24 20.8125 25.0738 20.8125 26.3984ZM24.0236 33.5712L24.0118 33.5713L24 33.5712C22.2894 33.5816 21.0245 33.1985 20.1966 32.8231C19.7796 32.634 19.4718 32.446 19.2729 32.3097C19.1735 32.2415 19.1015 32.1863 19.0567 32.1504C19.0344 32.1325 19.0189 32.1194 19.0102 32.1119L19.0032 32.1058C19.0029 32.1056 19.0034 32.106 19.0032 32.1058C18.7388 31.8651 18.3286 31.8825 18.0864 32.1461C17.8435 32.4104 17.8608 32.8216 18.1252 33.0645L18.1262 33.0655L18.1274 33.0666L18.1303 33.0692L18.1382 33.0763L18.1622 33.0973C18.1819 33.1142 18.2089 33.1369 18.2433 33.1645C18.3119 33.2196 18.4101 33.2943 18.5377 33.3818C18.793 33.5569 19.1668 33.7835 19.6597 34.007C20.6432 34.453 22.0945 34.8835 24.0118 34.8713C25.9292 34.8835 27.3805 34.453 28.3639 34.007C28.8568 33.7835 29.2307 33.5569 29.4859 33.3818C29.6136 33.2943 29.7117 33.2196 29.7804 33.1645C29.8147 33.1369 29.8417 33.1142 29.8614 33.0973L29.8854 33.0763L29.8933 33.0692L29.8963 33.0666L29.8975 33.0655L29.8985 33.0645C30.1628 32.8216 30.1802 32.4104 29.9373 32.1461C29.6951 31.8825 29.2856 31.8645 29.0212 32.1052L29.0134 32.1119C29.0048 32.1194 28.9893 32.1325 28.9669 32.1504C28.9222 32.1863 28.8501 32.2415 28.7507 32.3097C28.5519 32.446 28.2441 32.634 27.827 32.8231C26.9992 33.1985 25.7343 33.5816 24.0236 33.5712Z" fill="white"/>
</svg>
