<svg width="12" height="13" viewBox="0 0 12 13" fill="none" xmlns="http://www.w3.org/2000/svg">
<path d="M1.0001 5.00409H8.5901L5.2901 1.71409C5.1018 1.52579 4.99601 1.27039 4.99601 1.00409C4.99601 0.73779 5.1018 0.482395 5.2901 0.294092C5.47841 0.105788 5.7338 0 6.0001 0C6.26641 0 6.5218 0.105788 6.7101 0.294092L11.7101 5.29409C11.8011 5.3892 11.8725 5.50134 11.9201 5.62409C12.0201 5.86755 12.0201 6.14063 11.9201 6.38409C11.8725 6.50684 11.8011 6.61899 11.7101 6.71409L6.7101 11.7141C6.61714 11.8078 6.50654 11.8822 6.38468 11.933C6.26282 11.9838 6.13212 12.0099 6.0001 12.0099C5.86809 12.0099 5.73739 11.9838 5.61553 11.933C5.49367 11.8822 5.38307 11.8078 5.2901 11.7141C5.19638 11.6211 5.12198 11.5105 5.07121 11.3887C5.02044 11.2668 4.99431 11.1361 4.99431 11.0041C4.99431 10.8721 5.02044 10.7414 5.07121 10.6195C5.12198 10.4977 5.19638 10.3871 5.2901 10.2941L8.5901 7.00409H1.0001C0.734887 7.00409 0.480533 6.89873 0.292996 6.7112C0.10546 6.52366 0.000103951 6.26931 0.000103951 6.00409C0.000103951 5.73888 0.10546 5.48452 0.292996 5.29699C0.480533 5.10945 0.734887 5.00409 1.0001 5.00409Z" fill="#3BBFA1"/>
</svg>
